<svg xmlns="http://www.w3.org/2000/svg" viewBox="0 0 128 128" role="img" aria-labelledby="title desc">
  <title id="title">CoreK mark</title>
  <desc id="desc">CoreK blue and teal marketplace logo mark</desc>
  <defs>
    <linearGradient id="teal" x1="68" y1="18" x2="112" y2="108" gradientUnits="userSpaceOnUse">
      <stop offset="0" stop-color="#18c4c8"/>
      <stop offset="1" stop-color="#00a9b5"/>
    </linearGradient>
    <linearGradient id="navy" x1="12" y1="18" x2="58" y2="110" gradientUnits="userSpaceOnUse">
      <stop offset="0" stop-color="#073a7a"/>
      <stop offset="1" stop-color="#05285e"/>
    </linearGradient>
  </defs>
  <path fill="url(#navy)" d="M58 12H38C19.8 12 8 26.3 8 48v32c0 21.7 11.8 36 30 36h20V82H43.5C33.3 82 26 74.6 26 64s7.3-18 17.5-18H58V12Z"/>
  <path fill="url(#teal)" d="M68 12h20c6.5 0 10 3.5 10 10v18l22-19-28 42 28 44-22-21v20c0 6.5-3.5 10-10 10H68V82h7.5C85.7 82 93 74.6 93 64s-7.3-18-17.5-18H68V12Z"/>
  <circle cx="64" cy="64" r="26" fill="#fff"/>
  <path fill="#073a7a" d="M48 70h9v13h-9V70Zm13-11h9v24h-9V59Zm13-14h9v38h-9V45Z"/>
  <path fill="#fff" d="M30.5 39.5h15.8l2.8 13.2H36.5l-1.7-8.2h-4.3v-5Zm6.6 17.4h11.4l-1.1 4.6h-8.9l-1.4-4.6Z"/>
  <circle cx="41" cy="67" r="3.1" fill="#fff"/>
  <circle cx="51" cy="67" r="3.1" fill="#fff"/>
  <path fill="#fff" d="M39 96a9 9 0 1 1 18 0v4H39v-4Z"/>
  <circle cx="48" cy="83" r="6.2" fill="#fff"/>
  <path fill="#fff" d="M84 27h5v5h5v6h-5v5h-5v-5h-5v-6h5v-5Zm-6.5 68.5 8-8 8 8-8 8-8-8Zm8-15.5a5 5 0 1 1 0 10 5 5 0 0 1 0-10Z"/>
</svg>
